# AST/ASF file generated using VICON BodyLanguage
# -----------------------------------------------
:version 1.10
:name VICON
:units
  mass 1.0
  length 0.45
  angle deg
:documentation
   .ast/.asf automatically generated from VICON data using
   VICON BodyBuilder and BodyLanguage model FoxedUp or BRILLIANT.MOD
:root
   order TX TY TZ RX RY RZ
   axis XYZ
   position 0 0 0  
   orientation 0 0 0 
:bonedata
  begin
     id 1 
     name lhipjoint
     direction 0.603808 -0.713975 0.35448 
     length 2.2025 
     axis 0 0 0  XYZ
  end
  begin
     id 2 
     name lfemur
     direction 0.34202 -0.939693 0  
     length 6.55877  
     axis 0 0 20  XYZ
    dof rx ry rz
    limits (-160.0 20.0)
           (-70.0 70.0)
           (-60.0 70.0)
  end
  begin
     id 3 
     name ltibia
     direction 0.34202 -0.939693 0   
     length 6.80302   
     axis 0 0 20   XYZ
    dof rx
    limits (-10.0 170.0)
  end
  begin
     id 4 
     name lfoot
     direction 0.091848 -0.25235 0.963267   
     length 2.03446   
     axis -90 7.62852e-016 20   XYZ
    dof rx rz
    limits (-45.0 90.0)
           (-70.0 20.0)
  end
  begin
     id 5 
     name ltoes
     direction 1.53608e-011 -4.21925e-011 1   
     length 1.02033   
     axis -90 7.62852e-016 20   XYZ
    dof rx
    limits (-90.0 20.0)
  end
  begin
     id 6 
     name rhipjoint
     direction -0.587285 -0.724947 0.359928   
     length 2.16916  
     axis 0 0 0  XYZ 
  end
  begin
     id 7 
     name rfemur
     direction -0.34202 -0.939693 0   
     length 6.43173   
     axis 0 0 -20   XYZ
    dof rx ry rz
    limits (-160.0 20.0)
           (-70.0 70.0)
           (-70.0 60.0)
  end
  begin
     id 8 
     name rtibia
     direction -0.34202 -0.939693 0   
     length 6.70662   
     axis 0 0 -20   XYZ
    dof rx
    limits (-10.0 170.0)
 end
 begin
     id 9 
     name rfoot
     direction -0.11854 -0.325686 0.938018   
     length 2.0773  
     axis -90 -7.62852e-016 -20   XYZ
    dof rx rz
    limits (-45.0 90.0)
           (-20.0 70.0)
  end
  begin
     id 10 
     name rtoes
     direction -1.53547e-011 -4.21838e-011 1   
     length 1.03267   
     axis -90 -7.62852e-016 -20   XYZ
    dof rx
    limits (-90.0 20.0)
  end
  begin
     id 11 
     name lowerback
     direction -0.0286554 0.999539 0.0100613   
     length 2.08751   
     axis 0 0 0   XYZ
    dof rx ry rz
    limits (-20.0 45.0)
           (-30.0 30.0)
           (-30.0 30.0)
  end
  begin
     id 12 
     name upperback
     direction 0.0227093 0.999705 -0.00860929   
     length 2.08517   
     axis 0 0 0   XYZ
    dof rx ry rz
    limits (-20.0 45.0)
           (-30.0 30.0)
           (-30.0 30.0)
  end
  begin
     id 13 
     name thorax
     direction 0.0351627 0.999285 -0.013892   
     length 2.08412   
     axis 0 0 0   XYZ
    dof rx ry rz
    limits (-20.0 45.0)
           (-30.0 30.0)
           (-30.0 30.0)
  end
  begin
     id 14 
     name lowerneck
     direction -0.0696283 0.997344 0.0213922   
     length 1.44164   
     axis 0 0 0   XYZ
    dof rx ry rz
    limits (-20.0 45.0)
           (-30.0 30.0)
           (-30.0 30.0)
  end
  begin
     id 15 
     name upperneck
     direction 0.0531 0.990412 -0.127531   
     length 1.45022   
     axis 0 0 0   XYZ
    dof rx ry rz
    limits (-20.0 45.0)
           (-30.0 30.0)
           (-30.0 30.0)
  end
  begin
     id 16
     name head
     direction 0.0188154 0.998548 -0.0504727  
     length 1.45845  
     axis 0 0 0   XYZ
    dof rx ry rz
    limits (-20.0 45.0)
           (-30.0 30.0)
           (-30.0 30.0)
  end
  begin
     id 17 
     name lclavicle
     direction 0.961559 0.260051 0.088188  
     length 2.86057  
     axis 0 0 0   XYZ
    dof ry rz
    limits (-20.0 10.0)
           (0.0 20.0)
  end
  begin
     id 18 
     name lhumerus
     direction 1 -4.48959e-011 2.88185e-027   
     length 4.36901   
     axis 180 -30 -90   XYZ
    dof rx ry rz
    limits (-60.0 90.0)
           (-90.0 90.0)
           (-90.0 90.0)
  end
  begin
     id 19
     name lradius
     direction 1 -4.48965e-011 -3.92618e-028   
     length 3.21737   
     axis 180 -30 -90   XYZ
    dof rx
    limits (-10.0 170.0)
  end
  begin
     id 20
     name lwrist
     direction 1 -4.49037e-011 2.57246e-027   
     length 1.60869   
     axis -1.61769e-015 90 90   XYZ
    dof ry
    limits (-180.0 0.0)
 end
  begin
     id 21 
     name lhand
     direction 1 -4.48807e-011 5.12958e-027   
     length 0.564313   
     axis -3.27988e-015 90 90   XYZ
    dof rx rz
    limits (-90.0 90.0)
           (-45.0 45.0)
  end
  begin
     id 22 
     name lfingers
     direction 1 -4.48879e-011 1.02687e-026   
     length 0.454963   
     axis -6.5598e-015 90 90   XYZ
    dof rx
    limits (0.0 90.0)
  end
  begin
     id 23
     name lthumb
     direction 0.707107 -6.3475e-011 0.707107   
     length 0.653239   
     axis -90 45 2.19363e-014   XYZ
    dof rx rz
    limits (-45.0 45.0)
           (-45.0 45.0)
  end
  begin
     id 24 
     name rclavicle
     direction -0.954677 0.253915 0.155304   
     length 3.11497  
     axis 0 0 0   XYZ 
    dof ry rz
    limits (-10.0 20.0)
           (-20.0 0.0)
  end
  begin
     id 25 
     name rhumerus
     direction -1 -4.48958e-011 -8.20169e-028  
     length 4.34118   
     axis 180 30 90   XYZ
    dof rx ry rz
    limits (-90.0 60.0)
           (-90.0 90.0)
           (-90.0 90.0)
  end
  begin
     id 26 
     name rradius
     direction -1 -4.48978e-011 1.5676e-027   
     length 3.09531   
     axis 180 30 90   XYZ
    dof rx
    limits (-10.0 170.0)
  end
  begin
     id 27 
     name rwrist
     direction -1 -4.49001e-011 2.57123e-027   
     length 1.54765   
     axis -1.61769e-015 -90 -90   XYZ
    dof ry
    limits (-180.0 0.0)
  end
  begin
     id 28
     name rhand
     direction -1 -4.48847e-011 5.13225e-027   
     length 0.597446   
     axis -3.27988e-015 -90 -90   XYZ
    dof rx rz
    limits (-90.0 90.0)
           (-45.0 45.0)
  end
  begin
     id 29
     name rfingers
     direction -1 -4.49094e-011 1.02974e-026   
     length 0.481677   
     axis -6.5598e-015 -90 -90   XYZ
    dof rx
    limits (0.0 90.0)
  end
  begin
     id 30
     name rthumb
     direction -0.707107 -6.34859e-011 0.707107   
     length 0.691594   
     axis -90 -45 -2.19363e-014   XYZ
    dof rx rz
    limits (-45.0 45.0)
           (-45.0 45.0)
  end
:hierarchy
  begin
    root lhipjoint rhipjoint lowerback
    lhipjoint lfemur
    lfemur ltibia
    ltibia lfoot
    lfoot ltoes
    rhipjoint rfemur
    rfemur rtibia
    rtibia rfoot
    rfoot rtoes
    lowerback upperback
    upperback thorax
    thorax lowerneck lclavicle rclavicle
    lowerneck upperneck
    upperneck head
    lclavicle lhumerus
    lhumerus lradius
    lradius lwrist
    lwrist lhand lthumb
    lhand lfingers
    rclavicle rhumerus
    rhumerus rradius
    rradius rwrist
    rwrist rhand rthumb
    rhand rfingers
  end

#!OML:ASF I:\Acrobat_Osman\acrobat\cartwheel_test 2\Patient 1\Session 1\acrobat.ASF
:FULLY-SPECIFIED
:DEGREES
381
root 6.03357 14.5964 -11.633 47.3744 3.71354 -3.51568
lowerback 36.546 -1.63555 -1.95518
upperback 11.6451 -2.31152 2.83848
thorax -5.08952 -1.21344 4.83278
lowerneck -7.73947 3.61271 -7.67744
upperneck -6.98057 5.31334 -3.90984
head -0.986999 2.91357 0.1112
rclavicle 6.36111e-015 1.57785e-015
rhumerus -19.2867 -13.2409 -8.1534
rradius 30.6748
rwrist -1.97198
rhand -22.9172 26.1913
rfingers 7.12502
rthumb 3.52303 -3.75935
lclavicle 6.36111e-015 1.57785e-015
lhumerus 18.4208 -16.6664 52.4171
lradius 73.6658
lwrist 30.2708
lhand -15.2034 41.989
lfingers 7.12502
lthumb 10.9685 431.682
rfemur -77.141 -1.13779 3.22618
rtibia 37.0766
rfoot -22.6443 -2.9623
rtoes -18.4346
lfemur -75.4435 9.80006 6.13571
ltibia 39.8089
lfoot -7.57745 16.3763
ltoes -8.86827
382
root 6.00267 14.561 -11.567 46.4904 3.4126 -3.85854
lowerback 36.1813 -1.17017 -2.26159
upperback 11.663 -1.8672 2.78072
thorax -5.11146 -1.00978 4.77201
lowerneck -7.96764 3.25318 -7.03903
upperneck -6.86675 4.78967 -4.33297
head -0.875751 2.62479 -0.120267
rclavicle -4.77083e-015 -2.73329e-015
rhumerus -23.2712 -14.1529 -6.90084
rradius 31.3962
rwrist -3.35906
rhand -23.1644 25.5653
rfingers 7.12502
rthumb 3.2843 -4.3892
lclavicle -4.77083e-015 -2.73329e-015
lhumerus 17.476 -20.0727 55.097
lradius 75.8477
lwrist 25.3213
lhand -15.0986 39.0662
lfingers 7.12502
lthumb 11.0697 428.754
rfemur -77.0481 -0.971638 4.42834
rtibia 38.5697
rfoot -22.1796 -2.03179
rtoes -18.4988
lfemur -74.9978 10.4346 5.69767
ltibia 41.3138
lfoot -8.28071 15.5321
ltoes -9.93091
383
root 5.9712 14.5105 -11.4967 45.565 3.25227 -4.00317
lowerback 35.8221 -0.897036 -2.29879
upperback 11.6038 -1.57109 2.60105
thorax -5.07995 -0.866457 4.49368
lowerneck -8.16446 2.9057 -6.45192
upperneck -6.78001 4.28668 -4.57782
head -0.790663 2.34881 -0.28976
rclavicle -7.95139e-015 -1.80397e-014
rhumerus -27.0041 -15.4307 -5.9558
rradius 31.926
rwrist -4.15165
rhand -24.1696 24.042
rfingers 7.12502
rthumb 2.31353 -5.92521
lclavicle -7.95139e-015 -1.80397e-014
lhumerus 16.1248 -22.7938 57.8406
lradius 77.7776
lwrist 20.6605
lhand -13.0928 35.0512
lfingers 7.12502
lthumb 13.0037 424.626
rfemur -76.9943 -1.13931 5.64916
rtibia 40.3719
rfoot -21.6264 -1.50806
rtoes -20.4023
lfemur -74.6992 10.88 5.23153
ltibia 43.044
lfoot -9.14202 14.6036
ltoes -11.1076
384
root 5.93646 14.448 -11.4241 44.4828 3.21979 -4.12257
lowerback 35.5565 -0.642261 -2.18198
upperback 11.5089 -1.24369 2.44312
thorax -5.12238 -0.703869 4.14951
lowerneck -8.1938 2.52994 -5.7732
upperneck -6.78778 3.71744 -4.81397
head -0.764486 2.04311 -0.476622
rclavicle 1.90833e-014 -4.57205e-015
rhumerus -30.5266 -17.3331 -4.89175
rradius 32.1007
rwrist -4.64203
rhand -22.5857 25.3432
rfingers 7.12502
rthumb 3.84319 -4.60187
lclavicle 1.90833e-014 -4.57205e-015
lhumerus 14.1795 -24.9937 60.6237
lradius 79.8852
lwrist 18.087
lhand -12.338 35.7041
lfingers 7.12502
lthumb 13.7313 425.231
rfemur -76.9432 -1.47581 7.01372
rtibia 42.5238
rfoot -21.2279 -0.976864
rtoes -22.2845
lfemur -74.4777 11.3718 4.73469
ltibia 45.0432
lfoot -10.2239 13.3975
ltoes -11.732
385
root 5.89611 14.3753 -11.3501 43.2063 3.0611 -4.25195
lowerback 35.3823 -0.270891 -2.23254
upperback 11.4041 -0.828891 2.30471
thorax -5.20742 -0.503615 3.88636
lowerneck -8.16681 2.13563 -5.13183
upperneck -6.8067 3.12198 -5.00542
head -0.757799 1.72605 -0.646539
rclavicle -6.36111e-015 1.98785e-015
rhumerus -33.6673 -18.4571 -4.38307
rradius 32.0128
rwrist -4.41547
rhand -24.9318 23.8523
rfingers 7.12502
rthumb 1.57743 -6.12158
lclavicle -6.36111e-015 1.98785e-015
lhumerus 11.701 -26.431 63.3912
lradius 81.855
lwrist 17.6761
lhand -12.876 36.4242
lfingers 7.12502
lthumb 13.2128 425.986
rfemur -76.9841 -1.69512 8.28037
rtibia 45.2069
rfoot -21.1433 -0.063504
rtoes -22.6377
lfemur -74.2075 12.0463 4.11735
ltibia 47.3225
lfoot -11.2881 12.207
ltoes -12.6599
386
root 5.86293 14.271 -11.2663 42.2921 2.77453 -4.38308
lowerback 34.2063 0.10113 -2.23661
upperback 11.3817 -0.38736 2.13029
thorax -4.84694 -0.296177 3.54631
lowerneck -8.47166 1.65179 -4.85234
upperneck -6.53166 2.48293 -4.89472
head -0.622136 1.37918 -0.661376
rclavicle -7.95139e-016 2.48481e-015
rhumerus -36.2912 -20.0686 -3.75668
rradius 31.3857
rwrist -4.52012
rhand -24.1362 24.7958
rfingers 7.12502
rthumb 2.34584 -5.17107
lclavicle -7.95139e-016 2.48481e-015
lhumerus 8.84456 -27.0764 65.9933
lradius 83.6923
lwrist 18.7218
lhand -12.6935 35.4491
lfingers 7.12502
lthumb 13.3887 424.999
rfemur -77.6057 -1.93488 9.3859
rtibia 48.1967
rfoot -21.0176 0.942363
rtoes -22.5353
lfemur -74.3289 12.8152 3.57531
ltibia 49.7684
lfoot -12.1068 11.4459
ltoes -14.2811
387
root 5.83241 14.1289 -11.175 40.6688 3.02142 -4.04933
lowerback 33.9573 0.262384 -2.05149
upperback 11.4243 -0.132736 2.07416
thorax -4.72909 -0.170196 3.30195
lowerneck -9.10827 1.11264 -4.71988
upperneck -6.09835 1.81423 -4.67636
head -0.389642 1.01191 -0.620142
rclavicle -1.51076e-014 3.77691e-015
rhumerus -38.4768 -21.6582 -3.5086
rradius 30.6698
rwrist -4.41726
rhand -25.2187 24.2207
rfingers 7.12502
rthumb 1.30031 -5.75513
lclavicle -1.51076e-014 3.77691e-015
lhumerus 5.22932 -27.1083 68.9587
lradius 85.686
lwrist 20.0094
lhand -13.173 35.557
lfingers 7.12502
lthumb 12.9265 425.137
rfemur -77.4582 -2.56739 10.0942
rtibia 51.5812
rfoot -21.0219 1.72576
rtoes -21.3423
lfemur -74.1828 12.919 2.90869
ltibia 52.3881
lfoot -13.061 10.4406
ltoes -15.7059
388
root 5.79931 14.0163 -11.073 38.7827 3.05253 -3.91869
lowerback 33.5602 0.382916 -1.88139
upperback 11.5018 0.0514334 1.8347
thorax -4.51004 -0.0746861 2.8981
lowerneck -9.33741 0.79598 -4.61679
upperneck -5.92605 1.40955 -4.30625
head -0.302639 0.796109 -0.53033
rclavicle -1.82882e-014 7.85199e-015
rhumerus -40.0904 -23.1705 -4.11586
rradius 29.8642
rwrist -3.89285
rhand -26.8022 23.8197
rfingers 7.12502
rthumb -0.22903 -6.15996
lclavicle -1.82882e-014 7.85199e-015
lhumerus 2.02438 -26.3334 70.8935
lradius 86.749
lwrist 21.9495
lhand -13.7301 36.838
lfingers 7.12502
lthumb 12.3893 426.451
rfemur -76.9283 -2.71998 10.725
rtibia 54.9322
rfoot -21.151 2.40373
rtoes -19.0062
lfemur -73.4332 13.3146 2.31756
ltibia 54.922
lfoot -14.49 9.26312
ltoes -15.8864
389
root 5.76514 13.9 -10.9619 36.8068 3.04602 -3.83028
lowerback 32.7348 0.466705 -1.80613
upperback 11.778 0.179596 1.47264
thorax -4.41923 0.00520017 2.63147
lowerneck -9.39632 0.510293 -4.6478
upperneck -5.77761 1.05129 -3.65219
head -0.25151 0.611246 -0.333406
rclavicle 3.97569e-015 -5.36719e-015
rhumerus -41.2153 -24.013 -5.75633
rradius 29.248
rwrist -2.86514
rhand -28.754 22.4499
rfingers 7.12502
rthumb -2.11413 -7.51935
lclavicle 3.97569e-015 -5.36719e-015
lhumerus -1.54491 -24.9469 72.4354
lradius 87.1507
lwrist 24.0306
lhand -14.599 37.4141
lfingers 7.12502
lthumb 11.5515 427.076
rfemur -76.1968 -2.6358 11.1887
rtibia 58.1371
rfoot -21.7442 2.7349
rtoes -17.3706
lfemur -72.428 13.7794 1.85599
ltibia 57.2822
lfoot -15.8546 8.14559
ltoes -16.3805
